<svg
	xmlns="http://www.w3.org/2000/svg"
	viewBox="0 0 231.9 232.1"
	width="232"
	height="232">
	<g fill="#ffc136">
		<path
			d="M219.1 0h13v143.4a88.6 88.6 0 0 1-88.6 88.5H0V219h143.5a75.7 75.7 0 0 0 75.6-75.6Z"
			data-name="Path 3123" />
		<path
			d="M192.2 0h13v141.2a63.3 63.3 0 0 1-63.3 63.3H0v-13h142a50.4 50.4 0 0 0 50.2-50.3Z"
			data-name="Path 3124" />
		<path
			d="M165.4 0h13v138.6A38.4 38.4 0 0 1 140 177H0v-13h140a25.4 25.4 0 0 0 25.4-25.4Z"
			data-name="Path 3125" />
		<path
			d="M138.5 0h13v137a12.5 12.5 0 0 1-12.6 12.5H0v-13h138.5Z"
			data-name="Path 3126" />
	</g>
</svg>
