<svg xmlns="http://www.w3.org/2000/svg" data-name="Designs" viewBox="0 0 364.6 82.1">
  <path fill="#fff" d="m11.3 23.3 4.7 9.2 4.8-9.3H32l-.1 42c-3.9.5-7.8 1-11.6 1.7V45L16 54l-4.3-8.3v22.5L0 70.2v-47h11.3Zm49-.1L69 60.6l-11.6 1.3-1.4-6.4-8.6.8-1.5 7-11.6 1.5c3-14.3 6.2-28.1 9.3-41.6h16.5ZM49.7 46.8l4.3-.4-2-9.4h-.1l-2.2 9.7Zm33.9-23.7-.2 27 10.2-.6v8.8l-21.9 2 .2-37.1h11.7Zm36.1-.1 9 33c-4 .1-7.8.3-11.7.6l-1.5-5.6-8.5.5-1.6 5.8-11.6 1c3.1-12 6.3-23.7 9.4-35.2h16.5Zm-10.5 20.3 4.3-.1-2-8.2h-.2l-2.1 8.3Zm48.7-9.5c0 2-.4 3.8-1.2 5.4-.8 1.7-2 3-3.3 4a7.6 7.6 0 0 1-4.3 1.5 8.7 8.7 0 0 1-6-2.6v13.2l-11.7.5.1-32.7h16.1c1 0 1.9 0 2.8.3a9.4 9.4 0 0 1 4.5 2.5c.6.6 1.2 1.4 1.6 2.2a12 12 0 0 1 1.4 5.7ZM143 37.1a2.8 2.8 0 0 0 3-1l.7-1.1.2-1.5c0-1.1-.2-2-.7-2.6-.5-.6-1.1-.9-2-.9H143v7ZM172.3 23v11.6h6V23.1h11.6v31.5h-11.7V43h-6v11.8l-11.6.1V23.1h11.7Zm35.1-.4c2.5 0 4.8.7 6.8 2.2a15 15 0 0 1 5 6c1.1 2.5 1.7 5.3 1.7 8.3 0 3-.5 5.8-1.7 8.4a14 14 0 0 1-4.9 5.9c-2 1.4-4.3 2-6.8 2a12 12 0 0 1-6.9-2.3 16 16 0 0 1-4.8-6 19.2 19.2 0 0 1-1.8-8.3c0-2.9.5-5.6 1.7-8a14 14 0 0 1 4.9-6c2-1.5 4.3-2.3 6.8-2.3ZM204.8 38c0 1 .3 1.8.8 2.4.5.6 1.1 1 1.9 1 .7 0 1.3-.4 1.8-1s.8-1.4.8-2.4l-.2-1.3-.6-1c-.2-.4-.5-.6-.8-.8s-.7-.2-1-.2c-.8 0-1.4.3-2 .9-.4.6-.7 1.4-.7 2.4Zm37.5-15c2 0 3.6.5 5 1.4a10 10 0 0 1 3.4 3.7c.7 1.6 1 3.3 1 5.1.1 1.6-.1 3-.6 4.2a8.1 8.1 0 0 1-2.3 3.2 26 26 0 0 1 3.5 7.3 41 41 0 0 1 1.7 9l-12-.6c-.3-4.4-.9-7.6-1.7-9.5-.7-2-2-3-3.5-3V56l-11.6-.6L225 23h17.3Zm-5.6 13.2h.3c1.1 0 2-.2 2.4-.7.5-.5.8-1.3.7-2.4 0-1-.2-1.8-.7-2.4-.4-.5-1.1-.8-2-.9h-.7v6.4ZM278 23.1V39l-5.8-.3.2 19.7-11.7-1-.1-19-5.9-.3v-15H278Zm28.9.1L307 41a48 48 0 0 1-1.4 11.2c-.6 1.5-1.2 2.8-2 4-.7 1-1.6 2-2.7 2.8a9.4 9.4 0 0 1-6.8 2c-2.4-.3-4.6-1.4-6.7-3.1a17.1 17.1 0 0 1-4.8-7 34.1 34.1 0 0 1-1.7-11.9l-.1-16h11.6l.1 17.6c0 1.4.1 2.5.3 3 .2.6.6 1 1.1 1 .3 0 .6 0 .8-.3.2-.2.3-.5.4-.9l.2-1.6V23.2h11.6Zm13.1 0 6 13.7h.1V23.2h11.6l.2 43L329 65l-5.6-13.4h-.1v12.3L312 62.4l-.2-39.2h8.3Zm44.6.1V35l-10.2-.4v5.6l7.1.5v11.6l-7-.7V57l10 1.3v11.8c-7.1-1.3-14.4-2.4-21.6-3.5l-.1-43.5h21.8ZM98.1 81a8.3 8.3 0 0 1-3 1l-1.7.1c-1 0-2-.1-2.8-.4a6 6 0 0 1-2.2-1.3 6 6 0 0 1-1.4-2 6 6 0 0 1-.4-2.4c0-1 .2-2 .5-2.8s.9-1.4 1.5-1.9 1.4-.9 2.2-1.1c.9-.3 1.7-.4 2.6-.4 1.4 0 3 .3 4.7.9v3.2l-1.8-1a5.1 5.1 0 0 0-4 .1c-.6.3-1 .7-1.5 1.2s-.5 1.1-.5 1.8c0 .6.1 1.2.5 1.7.3.5.7.9 1.3 1.2.6.3 1.2.4 2 .4a6.4 6.4 0 0 0 3-.7c.3-.1.7-.3 1-.6v3Zm12.7-5c0 .5-.1 1-.4 1.4a2.9 2.9 0 0 1-5-2.9 2.9 2.9 0 0 1 4-1c.4.2.8.6 1 1s.4 1 .4 1.5Zm20.4 0c0 1-.3 2.1-.8 3-.5 1-1.3 1.8-2.3 2.3s-2.3.8-3.8.8-2.7-.3-3.7-.8c-1-.6-1.8-1.4-2.3-2.3-.5-1-.8-2-.8-3s.3-2.1.8-3c.5-1 1.2-1.8 2.3-2.3 1-.6 2.3-.9 3.7-.9 1.1 0 2.1.2 3 .5a5.5 5.5 0 0 1 3.4 3.3c.3.8.4 1.5.4 2.4Zm-3.7 0-.2-1.3a2 2 0 0 0-.6-1l-1-.6-1.4-.2a3 3 0 0 0-2.2.8c-.6.6-.9 1.4-.9 2.3s.3 1.6.9 2.2a3 3 0 0 0 2.2.9c.7 0 1.3-.2 1.7-.4.5-.3.9-.7 1.1-1.1.3-.5.4-1 .4-1.6Zm16.2 0a2.9 2.9 0 1 1-5.4-1.5 2.9 2.9 0 0 1 4-1c.4.2.7.6 1 1s.4 1 .4 1.5Zm20.3 0c0 1-.3 2.1-.8 3-.5 1-1.3 1.8-2.3 2.3s-2.2.8-3.7.8-2.7-.3-3.8-.8c-1-.6-1.8-1.4-2.3-2.3a6.7 6.7 0 0 1 0-6c.5-1 1.3-1.8 2.3-2.3 1-.6 2.3-.9 3.8-.9 1.1 0 2 .2 3 .5a5.5 5.5 0 0 1 3.4 3.3c.3.8.4 1.5.4 2.4Zm-3.7 0c0-.5 0-.9-.2-1.3l-.6-1-1-.6-1.3-.2a3 3 0 0 0-2.3.8 3.6 3.6 0 0 0 0 4.5 3 3 0 0 0 2.3.9c.7 0 1.2-.2 1.7-.4.5-.3.8-.7 1-1.1.3-.5.4-1 .4-1.6Zm16.2 0c0 .5-.1 1-.4 1.4a2.9 2.9 0 0 1-5-2.9 2.9 2.9 0 0 1 4-1c.4.2.8.6 1 1s.4 1 .4 1.5Zm20.1 6h-4.4l-4.6-5.6V82H184V70h3.6v5.3L192 70h4l-4.6 5.6 5.2 6.4Zm11.9-6a2.9 2.9 0 1 1-5.4-1.5 2.9 2.9 0 0 1 4-1c.4.2.7.6 1 1s.4 1 .4 1.5Zm11.1 6H216V70h3.6v12Zm13.3-6a2.9 2.9 0 1 1-5.4-1.5 2.9 2.9 0 0 1 4-1c.4.2.7.6 1 1s.4 1 .4 1.5Zm16.5 6h-9V70h8.9v2.4H244v2.2h5V77h-5v2.6h5.4V82Zm12.7-6c0 .5-.1 1-.4 1.4a2.9 2.9 0 0 1-5-2.9 2.9 2.9 0 0 1 4-1c.4.2.8.6 1 1s.4 1 .4 1.5Zm15.9 2.5a3.3 3.3 0 0 1-2.2 3.2c-.7.2-1.5.4-2.4.4a11.5 11.5 0 0 1-2.3-.3l-1.9-.6v-3l1.8 1a6 6 0 0 0 2 .3c.5 0 1 0 1.1-.3l.3-.5c0-.4-.2-.6-.5-.9l-1.4-.6-1.7-1a4 4 0 0 1-1.2-1.2c-.3-.5-.5-1-.5-1.7a3.1 3.1 0 0 1 2-3c.6-.3 1.4-.5 2.4-.5a9 9 0 0 1 3.2.6l.8.4v2.8l-1.7-1c-.6-.2-1.2-.3-1.9-.3-.4 0-.8 0-1 .2a1 1 0 0 0-.3.7l.3.6 1.1.6c1 .4 1.7.8 2.2 1.2.6.3 1 .7 1.3 1.2s.5 1 .5 1.7ZM120.1 2h-2.8v5.7H115V2h-2.8V0h8v2ZM134 7.7h-2.3v-3h-3.4v3H126V.1h2.3v2.8h3.4V.1h2.3v7.6Zm12.2 0h-5.8V.1h5.7v1.5h-3.4V3h3.2v1.6h-3.2v1.6h3.5v1.5ZM168.3 4a4 4 0 0 1-.5 1.9 5 5 0 0 1-1.5 1.4c-.7.3-1.4.5-2.4.5s-1.7-.1-2.4-.5a4 4 0 0 1-2-3.4c.1-.7.3-1.3.6-2 .3-.5.8-1 1.4-1.3.7-.4 1.5-.6 2.4-.6.7 0 1.4.1 2 .3.5.2 1 .5 1.3.9s.6.7.8 1.2l.3 1.5Zm-2.4 0-.1-.9c0-.2-.2-.4-.4-.6l-.6-.4a2 2 0 0 0-.9-.2c-.6 0-1 .2-1.4.6s-.5.8-.5 1.4.1 1 .5 1.4c.3.4.8.6 1.4.6.5 0 .8-.1 1.1-.3l.7-.7c.2-.3.2-.6.2-1Zm15.7 3.7H179l-.6-1.3-.6-1.1c-.2-.2-.3-.4-.5-.4a2 2 0 0 0-.7-.1h-.2v3h-2.3V0h3.9c.6 0 1.1.1 1.6.4s.7.6.8 1c.2.3.3.6.3 1s0 .7-.2 1l-.5.5-.6.4.7.5.6 1.2.8 1.6Zm-3.1-5.2c0-.3-.2-.6-.4-.7l-1.1-.2h-.5v1.8h.5c.6 0 1 0 1.2-.2.2-.1.3-.3.3-.7Zm10.9 5.2h-2.3V.1h2.3v7.6Zm13.6-.5-.4.1-.3.2h-.5a9.9 9.9 0 0 1-2.1.3c-.8 0-1.5-.1-2.1-.4a3.5 3.5 0 0 1-2.2-3.5c0-.6 0-1.1.3-1.6s.5-1 1-1.3a4.4 4.4 0 0 1 2-1h1.1a7.6 7.6 0 0 1 3.1.6v1.8l-1-.6-1.5-.2a3 3 0 0 0-1.6.4c-.4.3-.7.6-.8 1l-.3 1c0 .3.1.7.3 1l.8.8c.4.2.8.3 1.3.3l1-.1V5h-1V3.5h3v3.7Zm8.7.5h-2.3V.1h2.3v7.6Zm14.7 0h-2l-4-4.2v4.2h-2.3V.1h2l4 4.2V.1h2.3v7.6Zm14.6 0h-2.3l-.6-1.5h-3.3l-.7 1.5h-2.3L235 .1h2.6l3.3 7.6ZM237.5 5l-1-2.8-1.2 2.8h2.2Zm14.8 2.7h-5.7V.1h2.3v5.8h3.5v1.8Z"/>
</svg>
