<svg xmlns="http://www.w3.org/2000/svg" width="421.342" height="25.616" viewBox="0 0 421.342 25.616">
  <g id="Group_334" data-name="Group 334" transform="translate(-41.893 -329.221)">
    <path id="Path_28645" data-name="Path 28645" d="M160.666,329.221l-.139,4.173-5.58,18.268,10.809-7.958-4.211,8.995,7.7-5.673-3.655,7.811h.02l6.605-4.868-2.275,4.868H191.3l.129-4.173,6.553-21.442Zm25.1,13.465-9.3,8.967-9.5-8.967-.712-5.8,4.286-2.805,3.089,1.805,2.742,3.248,2.746-3.248,3.434-1.805,4.007,2.805Z" transform="translate(50.593)" fill="#fff"/>
    <path id="Path_28646" data-name="Path 28646" d="M45.363,329.221,41.893,340.6l9.652-5.488h2.488L48,354.837H64.5L62.529,346.3l2.665-8.885-1.064-2.3h7.718l2.526,5.488,3.619-11.382Z" transform="translate(0 0)" fill="#fff"/>
    <path id="Path_28647" data-name="Path 28647" d="M92.857,329.221l3.406,7.023H95.022l-3.183,10.393,1.055,2.3H78.745l6.033-19.721h-13.1l-.139,4.618-3.84,12.391,4.053,8.607h23.5l7.164-4.063L109,329.221Z" transform="translate(11.547 0)" fill="#fff"/>
    <path id="Path_28648" data-name="Path 28648" d="M137.618,334.968l-2.7-5.747H99.872l1.1,7.356-5.609,18.259h16.464l-2.74-5.932,3.517-11.484-1.065-2.3H125.7l-1.249,4.053,1.064,2.3H114.5l6.256,13.363h11.891l-3.295-7.468,5.376-2.962Z" transform="translate(23.929 0)" fill="#fff"/>
    <path id="Path_28649" data-name="Path 28649" d="M166.995,334.968l-2.7-5.747H129.387l1.1,7.358-5.608,18.258h30.26l7.135-4.062,1.675-5.451-1.712-3.507,3.286-1.869ZM150.93,348.942H138.567l.546-1.721-1.064-2.3H152.18Zm3.035-9.911H141.491l.518-1.61-1.064-2.3H155.1Z" transform="translate(37.138)" fill="#fff"/>
    <path id="Path_28650" data-name="Path 28650" d="M216.858,329.231l3.546,7.458h-1.245l-.737,2.346h-12.36l3.038-9.8H195.967l-.146,4.6-6.549,21h16.5l-2.784-5.848.546-1.765-1.055-2.3h14.189l-3.028,9.914h11.887l7.821-25.6Z" transform="translate(65.954 0.004)" fill="#fff"/>
    <path id="Path_28651" data-name="Path 28651" d="M255.359,341.081l3.62-11.851h-35.6l1.1,7.349-5.666,18.253h32.85l2.883-9.441-6.285,3.557H232.53l1.246-4.03h18.981l-2.737-5.884H235.6l.473-1.61-1.055-2.31h17.553Z" transform="translate(79.175 0.004)" fill="#fff"/>
    <path id="Path_28652" data-name="Path 28652" d="M260.68,329.23l.582,3.984-10.5,5.967-4.757,15.652h15.034l-1.864-4.393.837-2.773h12.369l-2.2,7.167h11.859l8.012-25.6Zm14.6,12.433h-13.4l11.6-6.547h2.784l-1.611,5.156Z" transform="translate(91.344 0.004)" fill="#fff"/>
    <path id="Path_28653" data-name="Path 28653" d="M317.825,334.972l-2.7-5.748H280.072l1.1,7.358-5.6,18.253h16.47l-2.746-5.929,3.51-11.487-1.064-2.3H305.9l-1.246,4.056,1.064,2.31H294.705l6.258,13.35H312.85l-3.292-7.466,5.375-2.956Z" transform="translate(104.574 0.001)" fill="#fff"/>
    <path id="Path_28654" data-name="Path 28654" d="M311.5,329.231,308.029,340.6l9.658-5.485h2.484l-6.039,19.718h16.5l-1.973-8.522,2.674-8.886-1.064-2.31h7.721l2.52,5.485,3.629-11.369Z" transform="translate(119.099 0.004)" fill="#fff"/>
  </g>
</svg>
