<?xml version="1.0" encoding="UTF-8" ?>
<svg id="layer" xmlns="http://www.w3.org/2000/svg" viewBox="0 0 600.1 78.53">
  <defs>
    <style>
      .cls-1 {
        fill: #fff;
      }

      .cls-2 {
        fill: #fff;
      }
    </style>
  </defs>
  <g>
    <path
			class="cls-2"
			d="M106.5,30.73h-6.1c-.5,0-.8-.4-.8-.8v-4.6c0-.4.3-.8.8-.8h18.7c.5,0,.8.4.8.8v4.6c0,.4-.3.8-.8.8h-6.1v22.6c0,.4-.4.8-.8.8h-5.1c-.4,0-.8-.4-.8-.8v-22.6h.2ZM127.1,53.33c0,.4.4.8.8.8h5c.5,0,.8-.4.8-.8v-11.2h12.1v11.2c0,.4.3.8.8.8h5c.4,0,.8-.4.8-.8v-28c0-.4-.4-.8-.8-.8h-5c-.5,0-.8.4-.8.8v10.7h-12.1v-10.7c0-.4-.3-.8-.8-.8h-5c-.4,0-.8.4-.8.8v28ZM162.9,53.33c0,.4.3.8.8.8h17.5c.5,0,.8-.4.8-.8v-4.6c0-.4-.3-.8-.8-.8h-11.7v-5.7h9.7c.4,0,.8-.3.8-.8v-4.6c0-.4-.4-.8-.8-.8h-9.7v-5.2h11.7c.5,0,.8-.4.8-.8v-4.6c0-.4-.3-.8-.8-.8h-17.5c-.5,0-.8.4-.8.8v27.9ZM214.8,54.03c.2.2.4.5.7.5h.4c.3,0,.6-.2.7-.5l13.2-28.5c.2-.6-.1-1.1-.7-1.1h-5.7c-.3,0-.7.2-.7.5l-7,15.4h-.2l-7-15.4c-.1-.2-.4-.5-.7-.5h-5.7c-.7,0-1,.6-.7,1.1l13.4,28.5ZM236.7,53.33c0,.4.4.8.8.8h5.1c.4,0,.8-.4.8-.8v-28c0-.4-.4-.8-.8-.8h-5.1c-.4,0-.8.4-.8.8v28ZM257.3,53.33c0,.4.4.8.8.8h5.1c.4,0,.8-.4.8-.8v-22.6h6.1c.5,0,.8-.4.8-.8v-4.6c0-.4-.3-.8-.8-.8h-18.7c-.5,0-.8.4-.8.8v4.6c0,.4.3.8.8.8h6.1v22.6h-.2ZM283.4,44.03l3.2-7h0l3.2,7h-6.4ZM272.5,52.93c-.2.6.1,1.1.7,1.1h4.7c.8,0,1.3-.5,1.5-1l1.5-3.4h11.5l1.5,3.3c.4.8.7,1.1,1.5,1.1h4.7c.7,0,1-.6.7-1.1l-13.2-28.5c-.2-.2-.4-.5-.7-.5h-.5c-.3,0-.6.2-.7.5l-13.2,28.5M306.8,53.13c-.1.6.3.9.8.9h5c.4,0,.7-.3.8-.7l1.8-13.1h.1l7.2,13.7c.2.2.5.5.7.5h.7c.2,0,.6-.2.7-.5l7.1-13.7h.1l1.9,13.1c0,.3.4.7.8.7h5c.5,0,.9-.4.8-.9l-4.7-28.4c-.1-.4-.4-.7-.7-.7h-.7c-.2,0-.6.2-.7.4l-9.8,18.2h-.1l-10-18.2c-.2-.2-.5-.4-.7-.4h-.7c-.3,0-.7.3-.7.7l-4.7,28.4ZM348.9,53.33c0,.4.4.8.8.8h5.1c.4,0,.8-.4.8-.8v-28c0-.4-.4-.8-.8-.8h-5.1c-.4,0-.8.4-.8.8v28ZM365.9,53.33c0,.4.4.8.8.8h5c.5,0,.8-.4.8-.8v-15.7h0l16.7,16.8c.1.1.4.2.6.2h.7c.4,0,.8-.3.8-.7v-28.6c0-.4-.4-.8-.8-.8h-5.1c-.5,0-.8.4-.8.8v15h0l-16.9-16.2h-1.1c-.4,0-.8.3-.8.7l.1,28.5ZM414.6,50.03c-.3.6-.2.7.2,1.2,1,1,4,3.2,9.5,3.2,6.2,0,10-4.4,10-8.7,0-5.7-5.2-8.3-8.6-9.7-3.3-1.3-4.6-2.5-4.6-4.1,0-1.2,1.2-2.2,2.7-2.2,2.6,0,5.7,2.3,6.1,2.5.4.3,1.2-.1,1.4-.6l2.2-3.2c.2-.3.2-1.1-.2-1.3-1.2-.9-4.7-3.2-9.1-3.2-6.5,0-9.7,4.2-9.7,8.4,0,5.1,4.6,7.9,8.2,9.3,2.9,1.2,4.3,2.5,4.3,4.2,0,1.5-1.2,2.5-2.9,2.5-2.8,0-5.8-2.2-6-2.3-.3-.2-1.1-.3-1.4.2l-2.1,3.8M442.9,53.33c0,.4.4.8.8.8h5c.5,0,.8-.4.8-.8v-11.2h12.1v11.2c0,.4.3.8.8.8h5c.4,0,.8-.4.8-.8v-28c0-.4-.4-.8-.8-.8h-5c-.5,0-.8.4-.8.8v10.7h-12.1v-10.7c0-.4-.3-.8-.8-.8h-5c-.4,0-.8.4-.8.8v28ZM491.8,47.73c-4.6,0-8.4-3.8-8.4-8.4s3.8-8.5,8.4-8.5,8.5,3.8,8.5,8.5c-.1,4.7-3.8,8.4-8.5,8.4M491.8,24.13c-8.5,0-15.2,6.8-15.2,15.2s6.7,15.2,15.2,15.2,15.2-6.7,15.2-15.2c.1-8.4-6.8-15.2-15.2-15.2M522,37.23v-6.5h4c1.8,0,3.3,1.3,3.3,3.2s-1.5,3.3-3.3,3.3h-4ZM515.5,53.33c0,.4.3.8.8.8h5c.4,0,.8-.4.8-.8v-9.9h4.4c5.2,0,9.4-4.2,9.4-9.5s-4.2-9.3-9.5-9.3h-10.2c-.5,0-.8.4-.8.8l.1,27.9h0ZM549.8,37.23v-6.5h4c1.8,0,3.3,1.3,3.3,3.2s-1.5,3.3-3.3,3.3h-4ZM543.3,53.33c0,.4.3.8.8.8h5c.4,0,.8-.4.8-.8v-9.9h4.4c5.2,0,9.4-4.2,9.4-9.5s-4.2-9.3-9.5-9.3h-10.2c-.5,0-.8.4-.8.8l.1,27.9h0ZM571,53.33c0,.4.3.8.8.8h17.5c.5,0,.8-.4.8-.8v-4.6c0-.4-.3-.8-.8-.8h-11.7v-5.7h9.7c.4,0,.8-.3.8-.8v-4.6c0-.4-.4-.8-.8-.8h-9.7v-5.2h11.7c.5,0,.8-.4.8-.8v-4.6c0-.4-.3-.8-.8-.8h-17.5c-.5,0-.8.4-.8.8v27.9Z" />
    <path
			class="cls-2"
			d="M600.1,27.53c0,1.7-1.4,3.2-3.2,3.2-1.7,0-3.2-1.4-3.2-3.2,0-1.7,1.4-3.1,3.2-3.1,1.7,0,3.2,1.3,3.2,3.1ZM594.5,27.53c0,1.4,1.1,2.5,2.4,2.5s2.4-1.1,2.4-2.5-1-2.5-2.4-2.5c-1.3.1-2.4,1.1-2.4,2.5ZM596.4,29.13h-.7v-3.1c.2,0,.7-.1,1.2-.1.6,0,.8.1,1.1.2.2.2.3.3.3.7s-.2.7-.7.7h0c.3.1.4.3.6.7.1.5.2.7.2.7h-.7c-.1-.1-.2-.4-.2-.7-.1-.3-.2-.5-.7-.5h-.4v1.4ZM596.4,27.43h.3c.4,0,.7-.2.7-.4s-.2-.5-.7-.5h-.4l.1.9h0Z" />
  </g>
  <g>
    <path
			class="cls-1"
			d="M93.9,2.73C90.1.03,70.5-3.47,61.4,7.73c-16.2,20.3,5.2,45.7,5.2,45.7L93.9,2.73Z" />
    <path
			class="cls-2"
			d="M53.2,39.73c-4.8-9-11.2-22.1-12-23.6C33.5,2.63,23.2,1.23,17.1,1.23H0s37.2,71.2,37.7,72.1c2.3,3.7,5.7,5.2,9.2,5.2s6.8-1.3,9.2-5.2h0l10.6-20c0,.1-5.4,1.6-13.5-13.6" />
  </g>
</svg>
